# Blender 4.5.3 LTS
# www.blender.org
mtllib BaseGal2.mtl
g Cube.002_Mesh
v -1.464016 1.650979 -1.910675
v -1.464016 4.771341 -1.910675
v -1.464016 1.650979 -1.597814
v -1.464016 4.771341 -1.597814
v -1.776876 1.650979 -1.910675
v -1.776876 4.771341 -1.910675
v -1.776876 1.650979 -1.597814
v -1.776876 4.771341 -1.597814
v 1.893281 1.650980 -1.910675
v 1.893281 4.771340 -1.910675
v 1.893281 1.650980 -1.597814
v 1.893281 4.771340 -1.597814
v 1.580420 1.650980 -1.910675
v 1.580420 4.771340 -1.910675
v 1.580420 1.650980 -1.597814
v 1.580420 4.771340 -1.597814
v 1.893281 1.650980 1.470090
v 1.893281 4.771340 1.470090
v 1.893281 1.650980 1.782950
v 1.893281 4.771340 1.782950
v 1.580420 1.650980 1.470090
v 1.580420 4.771340 1.470090
v 1.580420 1.650980 1.782950
v 1.580420 4.771340 1.782950
v -1.464016 1.650980 1.470090
v -1.464016 4.771340 1.470090
v -1.464016 1.650980 1.782950
v -1.464016 4.771340 1.782950
v -1.776876 1.650980 1.470090
v -1.776876 4.771340 1.470090
v -1.776876 1.650980 1.782950
v -1.776876 4.771340 1.782950
v 1.817611 -0.017977 -1.823269
v 1.905581 1.749437 -1.911240
v 1.817611 -0.017977 1.695548
v 1.905581 1.749437 1.783519
v -1.701207 -0.017977 -1.823269
v -1.789177 1.749437 -1.911240
v -1.701207 -0.017977 1.695548
v -1.789177 1.749437 1.783519
v 1.905581 1.413244 -1.911240
v 1.905581 1.413244 1.783519
v -1.789177 1.413244 1.783519
v -1.789177 1.413244 -1.911240
v 1.817611 1.382276 1.695548
v -1.701207 1.382276 1.695548
v -1.701207 1.382276 -1.823269
v 1.817611 1.382276 -1.823269
v 1.891221 4.625046 -1.896882
v 1.891221 4.875334 -1.896882
v 1.891221 4.625046 1.769160
v 1.891221 4.875334 1.769160
v -1.774817 4.625046 -1.896882
v -1.774817 4.875334 -1.896882
v -1.774817 4.625046 1.769160
v -1.774817 4.875334 1.769160
vn 1.0000 -0.0000 -0.0000
vn -0.0000 -0.0000 1.0000
vn -1.0000 -0.0000 -0.0000
vn -0.0000 -0.0000 -1.0000
vn -0.0000 -1.0000 -0.0000
vn -0.0000 1.0000 -0.0000
vn -0.0000 -0.9433 -0.3321
vn -0.3321 -0.9433 -0.0000
vn -0.0000 -0.9433 0.3321
vn 0.3321 -0.9433 -0.0000
vt 0.425013 0.723549
vt 0.447962 0.746499
vt 0.425013 0.746499
vt 0.469002 0.723549
vt 0.491952 0.746499
vt 0.469002 0.746499
vt 0.512992 0.723549
vt 0.535942 0.746499
vt 0.512992 0.746499
vt 0.556982 0.723549
vt 0.579932 0.746499
vt 0.556982 0.746499
vt 0.473659 0.690315
vt 0.496609 0.667365
vt 0.496608 0.690315
vt 0.525527 0.701887
vt 0.548477 0.678937
vt 0.548477 0.701887
vt 0.600972 0.746499
vt 0.623921 0.723549
vt 0.623921 0.746499
vt 0.426141 0.637900
vt 0.449091 0.614950
vt 0.449091 0.637900
vt 0.470131 0.637900
vt 0.493081 0.614950
vt 0.493081 0.637900
vt 0.428254 0.698098
vt 0.451204 0.675148
vt 0.451204 0.698098
vt 0.514121 0.637899
vt 0.537070 0.614950
vt 0.537070 0.637899
vt 0.572698 0.691389
vt 0.595648 0.668439
vt 0.595648 0.691389
vt 0.616688 0.691389
vt 0.639638 0.668439
vt 0.639638 0.691389
vt 0.569908 0.637900
vt 0.592858 0.614950
vt 0.592858 0.637900
vt 0.617140 0.631416
vt 0.640089 0.608466
vt 0.640089 0.631416
vt 0.946406 0.381799
vt 0.969356 0.358849
vt 0.969356 0.381799
vt 0.741135 0.294223
vt 0.765447 0.023196
vt 0.765447 0.294223
vt 0.830167 0.297465
vt 0.861415 0.026437
vt 0.861415 0.297465
vt 0.780022 0.292602
vt 0.806093 0.021575
vt 0.806092 0.292602
vt 0.885091 0.299086
vt 0.911959 0.028058
vt 0.911959 0.299086
vt 0.857833 0.566901
vt 0.599712 0.308780
vt 0.857833 0.308780
vt 0.019790 0.287740
vt 0.290817 0.016712
vt 0.290817 0.287740
vt 0.318310 0.023165
vt 0.582885 0.016712
vt 0.576432 0.023165
vt 0.311857 0.287740
vt 0.318310 0.281287
vt 0.582885 0.287740
vt 0.576432 0.281287
vt 0.031894 0.629003
vt 0.280789 0.735901
vt 0.150960 0.733248
vt 0.379179 0.592510
vt 0.278527 0.822136
vt 0.379179 0.944796
vt 0.151872 0.849328
vt 0.031894 0.981289
vt 0.933166 0.298600
vt 0.960405 0.029679
vt 0.960404 0.298600
vt 0.681002 0.292792
vt 0.727415 0.023871
vt 0.727412 0.292792
vt 0.873526 0.583877
vt 0.906630 0.314956
vt 0.906630 0.583877
vt 0.607871 0.291171
vt 0.654282 0.022250
vt 0.654282 0.291171
vt 0.019790 0.577701
vt 0.288711 0.308780
vt 0.288711 0.577701
vt 0.309751 0.577701
vt 0.578672 0.308780
vt 0.578672 0.577701
vt 0.447962 0.723549
vt 0.491952 0.723549
vt 0.535942 0.723549
vt 0.579932 0.723549
vt 0.473659 0.667365
vt 0.525527 0.678937
vt 0.600972 0.723549
vt 0.426141 0.614950
vt 0.470131 0.614950
vt 0.428254 0.675148
vt 0.514121 0.614950
vt 0.572698 0.668439
vt 0.616688 0.668439
vt 0.569908 0.614950
vt 0.617140 0.608466
vt 0.946406 0.358849
vt 0.741135 0.023196
vt 0.830167 0.026437
vt 0.780022 0.021575
vt 0.885091 0.028058
vt 0.599712 0.566901
vt 0.019790 0.016712
vt 0.311857 0.016712
vt 0.933167 0.029679
vt 0.681004 0.023871
vt 0.873526 0.314956
vt 0.607871 0.022250
vt 0.019790 0.308780
vt 0.309751 0.308780
s 0
g Cube.002_Material.002
usemtl Material.002
f 2/1/1 3/2/1 1/3/1
f 4/4/2 7/5/2 3/6/2
f 8/7/3 5/8/3 7/9/3
f 6/10/4 1/11/4 5/12/4
f 10/13/1 11/14/1 9/15/1
f 12/16/2 15/17/2 11/18/2
f 16/19/3 13/20/3 15/21/3
f 14/22/4 9/23/4 13/24/4
f 18/25/1 19/26/1 17/27/1
f 20/28/2 23/29/2 19/30/2
f 24/31/3 21/32/3 23/33/3
f 22/34/4 17/35/4 21/36/4
f 26/37/1 27/38/1 25/39/1
f 28/40/2 31/41/2 27/42/2
f 32/43/3 29/44/3 31/45/3
f 30/46/4 25/47/4 29/48/4
f 34/49/1 42/50/1 41/51/1
f 36/52/2 43/53/2 42/54/2
f 40/55/3 44/56/3 43/57/3
f 38/58/4 41/59/4 44/60/4
f 39/61/5 33/62/5 35/63/5
f 36/64/6 38/65/6 40/66/6
f 47/67/7 41/68/7 48/69/7
f 43/70/8 47/67/8 46/71/8
f 42/72/9 46/71/9 45/73/9
f 41/68/10 45/73/10 48/69/10
f 48/74/1 35/75/1 33/76/1
f 45/77/2 39/78/2 35/75/2
f 46/79/3 37/80/3 39/78/3
f 47/81/4 33/76/4 37/80/4
f 50/82/1 51/83/1 49/84/1
f 52/85/2 55/86/2 51/87/2
f 56/88/3 53/89/3 55/90/3
f 54/91/4 49/92/4 53/93/4
f 55/94/5 49/95/5 51/96/5
f 52/97/6 54/98/6 56/99/6
f 2/1/1 4/100/1 3/2/1
f 4/4/2 8/101/2 7/5/2
f 8/7/3 6/102/3 5/8/3
f 6/10/4 2/103/4 1/11/4
f 10/13/1 12/104/1 11/14/1
f 12/16/2 16/105/2 15/17/2
f 16/19/3 14/106/3 13/20/3
f 14/22/4 10/107/4 9/23/4
f 18/25/1 20/108/1 19/26/1
f 20/28/2 24/109/2 23/29/2
f 24/31/3 22/110/3 21/32/3
f 22/34/4 18/111/4 17/35/4
f 26/37/1 28/112/1 27/38/1
f 28/40/2 32/113/2 31/41/2
f 32/43/3 30/114/3 29/44/3
f 30/46/4 26/115/4 25/47/4
f 34/49/1 36/116/1 42/50/1
f 36/52/2 40/117/2 43/53/2
f 40/55/3 38/118/3 44/56/3
f 38/58/4 34/119/4 41/59/4
f 39/61/5 37/120/5 33/62/5
f 36/64/6 34/121/6 38/65/6
f 47/67/7 44/122/7 41/68/7
f 43/70/8 44/122/8 47/67/8
f 42/72/9 43/70/9 46/71/9
f 41/68/10 42/72/10 45/73/10
f 48/74/1 45/77/1 35/75/1
f 45/77/2 46/79/2 39/78/2
f 46/79/3 47/81/3 37/80/3
f 47/81/4 48/74/4 33/76/4
f 50/82/1 52/123/1 51/83/1
f 52/85/2 56/124/2 55/86/2
f 56/88/3 54/125/3 53/89/3
f 54/91/4 50/126/4 49/92/4
f 55/94/5 53/127/5 49/95/5
f 52/97/6 50/128/6 54/98/6
