# Blender 4.5.3 LTS
# www.blender.org
mtllib puertaRotatoria.mtl
o Cube.001
v 0.219637 -0.112509 -0.056942
v 0.219637 -0.112509 5.521126
v 0.219637 8.670469 5.521126
v -0.219637 -0.112509 -0.056942
v -0.219637 -0.112509 5.521126
v -0.219637 8.670469 5.521126
v 0.219637 5.772139 -0.056942
v 0.219637 8.670469 3.122332
v -0.219637 8.670469 3.122332
v -0.219637 5.772138 -0.056942
vn -0.0000 -0.0000 1.0000
vn -0.0000 -1.0000 -0.0000
vn -0.0000 0.7390 -0.6737
vn -0.0000 -0.0000 -1.0000
vn 1.0000 -0.0000 -0.0000
vn -0.0000 1.0000 -0.0000
vn -1.0000 -0.0000 -0.0000
vt 0.713243 0.000000
vt 0.841109 0.643378
vt 0.713243 0.643378
vt 0.000000 1.000000
vt 0.127866 0.643378
vt 0.127866 1.000000
vt 0.968975 0.000000
vt 0.841109 0.212311
vt 0.841109 0.000000
vt 0.968975 0.643378
vt 0.841109 0.643378
vt 0.000000 0.212311
vt 0.356622 0.000000
vt 0.356622 0.643378
vt 0.127866 0.796740
vt 0.255731 0.643378
vt 0.255731 0.796740
vt 0.713243 0.212311
vt 0.713243 0.643378
vt 0.841109 0.000000
vt 0.000000 0.643378
vt 0.968975 0.212311
vt 0.000000 0.643378
vt 0.203260 0.000000
vt 0.127866 0.643378
vt 0.509983 0.000000
s 0
g Cube.001_Material.004
usemtl Material.004
f 3/1/1 5/2/1 2/3/1
f 5/4/2 1/5/2 2/6/2
f 8/7/3 10/8/3 9/9/3
f 10/8/4 1/10/4 4/11/4
f 7/12/5 3/13/5 2/14/5
f 3/15/6 9/16/6 6/17/6
f 6/13/7 10/18/7 4/19/7
f 3/1/1 6/20/1 5/2/1
f 5/4/2 4/21/2 1/5/2
f 8/7/3 7/22/3 10/8/3
f 10/8/4 7/22/4 1/10/4
f 2/14/5 1/23/5 7/12/5
f 7/12/5 8/24/5 3/13/5
f 3/15/6 8/25/6 9/16/6
f 4/19/7 5/14/7 6/13/7
f 6/13/7 9/26/7 10/18/7
